<mxfile host="app.diagrams.net" modified="2024-06-20T11:42:17.510Z" agent="Mozilla/5.0 (Windows NT 10.0; Win64; x64) AppleWebKit/537.36 (KHTML, like Gecko) Chrome/121.0.0.0 Safari/537.36" etag="5nLYDLclUha0Q8jqY2yG" version="24.5.5" type="device">
  <diagram name="Página-1" id="syoB1iM3P5_4qAPrwLX9">
    <mxGraphModel dx="1647" dy="877" grid="1" gridSize="10" guides="1" tooltips="1" connect="1" arrows="1" fold="1" page="1" pageScale="1" pageWidth="827" pageHeight="1169" math="0" shadow="0">
      <root>
        <mxCell id="0" />
        <mxCell id="1" parent="0" />
        <mxCell id="yz_B4nsLO3pR374VVMbW-5" value="" style="edgeStyle=orthogonalEdgeStyle;rounded=0;orthogonalLoop=1;jettySize=auto;html=1;" edge="1" parent="1" source="yz_B4nsLO3pR374VVMbW-1" target="yz_B4nsLO3pR374VVMbW-2">
          <mxGeometry relative="1" as="geometry" />
        </mxCell>
        <mxCell id="yz_B4nsLO3pR374VVMbW-1" value="inicio" style="ellipse;whiteSpace=wrap;html=1;" vertex="1" parent="1">
          <mxGeometry x="482" y="40" width="120" height="60" as="geometry" />
        </mxCell>
        <mxCell id="yz_B4nsLO3pR374VVMbW-6" value="" style="edgeStyle=orthogonalEdgeStyle;rounded=0;orthogonalLoop=1;jettySize=auto;html=1;" edge="1" parent="1" source="yz_B4nsLO3pR374VVMbW-2" target="yz_B4nsLO3pR374VVMbW-3">
          <mxGeometry relative="1" as="geometry" />
        </mxCell>
        <mxCell id="yz_B4nsLO3pR374VVMbW-2" value="tela inicial" style="rounded=0;whiteSpace=wrap;html=1;" vertex="1" parent="1">
          <mxGeometry x="482" y="140" width="120" height="60" as="geometry" />
        </mxCell>
        <mxCell id="yz_B4nsLO3pR374VVMbW-7" value="" style="edgeStyle=orthogonalEdgeStyle;rounded=0;orthogonalLoop=1;jettySize=auto;html=1;" edge="1" parent="1" source="yz_B4nsLO3pR374VVMbW-3" target="yz_B4nsLO3pR374VVMbW-4">
          <mxGeometry relative="1" as="geometry" />
        </mxCell>
        <mxCell id="yz_B4nsLO3pR374VVMbW-3" value="selecionar setores&amp;nbsp;" style="rounded=0;whiteSpace=wrap;html=1;" vertex="1" parent="1">
          <mxGeometry x="482" y="230" width="120" height="60" as="geometry" />
        </mxCell>
        <mxCell id="yz_B4nsLO3pR374VVMbW-9" value="" style="edgeStyle=orthogonalEdgeStyle;rounded=0;orthogonalLoop=1;jettySize=auto;html=1;" edge="1" parent="1" source="yz_B4nsLO3pR374VVMbW-4" target="yz_B4nsLO3pR374VVMbW-8">
          <mxGeometry relative="1" as="geometry" />
        </mxCell>
        <mxCell id="yz_B4nsLO3pR374VVMbW-4" value="selecionar costura" style="rounded=0;whiteSpace=wrap;html=1;" vertex="1" parent="1">
          <mxGeometry x="482" y="330" width="120" height="60" as="geometry" />
        </mxCell>
        <mxCell id="yz_B4nsLO3pR374VVMbW-26" value="" style="edgeStyle=orthogonalEdgeStyle;rounded=0;orthogonalLoop=1;jettySize=auto;html=1;" edge="1" parent="1" source="yz_B4nsLO3pR374VVMbW-8" target="yz_B4nsLO3pR374VVMbW-25">
          <mxGeometry relative="1" as="geometry" />
        </mxCell>
        <mxCell id="yz_B4nsLO3pR374VVMbW-30" value="" style="edgeStyle=orthogonalEdgeStyle;rounded=0;orthogonalLoop=1;jettySize=auto;html=1;" edge="1" parent="1" source="yz_B4nsLO3pR374VVMbW-8" target="yz_B4nsLO3pR374VVMbW-10">
          <mxGeometry relative="1" as="geometry" />
        </mxCell>
        <mxCell id="yz_B4nsLO3pR374VVMbW-8" value="lista de costureiros" style="rounded=0;whiteSpace=wrap;html=1;" vertex="1" parent="1">
          <mxGeometry x="482" y="430" width="120" height="60" as="geometry" />
        </mxCell>
        <mxCell id="yz_B4nsLO3pR374VVMbW-31" value="sim" style="edgeStyle=orthogonalEdgeStyle;rounded=0;orthogonalLoop=1;jettySize=auto;html=1;entryX=1;entryY=0.5;entryDx=0;entryDy=0;" edge="1" parent="1" source="yz_B4nsLO3pR374VVMbW-10" target="yz_B4nsLO3pR374VVMbW-3">
          <mxGeometry relative="1" as="geometry">
            <Array as="points">
              <mxPoint x="698" y="260" />
            </Array>
          </mxGeometry>
        </mxCell>
        <mxCell id="yz_B4nsLO3pR374VVMbW-10" value="voltar?" style="rhombus;whiteSpace=wrap;html=1;" vertex="1" parent="1">
          <mxGeometry x="648" y="410" width="100" height="100" as="geometry" />
        </mxCell>
        <mxCell id="yz_B4nsLO3pR374VVMbW-43" value="sim" style="edgeStyle=orthogonalEdgeStyle;rounded=0;orthogonalLoop=1;jettySize=auto;html=1;" edge="1" parent="1" source="yz_B4nsLO3pR374VVMbW-20" target="yz_B4nsLO3pR374VVMbW-42">
          <mxGeometry relative="1" as="geometry" />
        </mxCell>
        <mxCell id="yz_B4nsLO3pR374VVMbW-58" value="não" style="edgeStyle=orthogonalEdgeStyle;rounded=0;orthogonalLoop=1;jettySize=auto;html=1;entryX=1;entryY=0.5;entryDx=0;entryDy=0;" edge="1" parent="1" source="yz_B4nsLO3pR374VVMbW-20" target="yz_B4nsLO3pR374VVMbW-2">
          <mxGeometry relative="1" as="geometry">
            <Array as="points">
              <mxPoint x="798" y="725" />
              <mxPoint x="798" y="170" />
            </Array>
          </mxGeometry>
        </mxCell>
        <mxCell id="yz_B4nsLO3pR374VVMbW-20" value="&amp;nbsp;cadastrar costureiro?" style="rhombus;whiteSpace=wrap;html=1;" vertex="1" parent="1">
          <mxGeometry x="489" y="670" width="106" height="110" as="geometry" />
        </mxCell>
        <mxCell id="yz_B4nsLO3pR374VVMbW-28" value="não" style="edgeStyle=orthogonalEdgeStyle;rounded=0;orthogonalLoop=1;jettySize=auto;html=1;" edge="1" parent="1" source="yz_B4nsLO3pR374VVMbW-25" target="yz_B4nsLO3pR374VVMbW-20">
          <mxGeometry relative="1" as="geometry" />
        </mxCell>
        <mxCell id="yz_B4nsLO3pR374VVMbW-37" value="sim" style="edgeStyle=orthogonalEdgeStyle;rounded=0;orthogonalLoop=1;jettySize=auto;html=1;" edge="1" parent="1" source="yz_B4nsLO3pR374VVMbW-25" target="yz_B4nsLO3pR374VVMbW-36">
          <mxGeometry relative="1" as="geometry" />
        </mxCell>
        <mxCell id="yz_B4nsLO3pR374VVMbW-25" value="costureiro cadastrado?" style="strokeWidth=2;html=1;shape=mxgraph.flowchart.decision;whiteSpace=wrap;" vertex="1" parent="1">
          <mxGeometry x="492" y="530" width="100" height="100" as="geometry" />
        </mxCell>
        <mxCell id="yz_B4nsLO3pR374VVMbW-33" value="não" style="edgeStyle=orthogonalEdgeStyle;rounded=0;orthogonalLoop=1;jettySize=auto;html=1;entryX=1;entryY=0.5;entryDx=0;entryDy=0;entryPerimeter=0;" edge="1" parent="1" source="yz_B4nsLO3pR374VVMbW-10" target="yz_B4nsLO3pR374VVMbW-25">
          <mxGeometry relative="1" as="geometry">
            <Array as="points">
              <mxPoint x="698" y="580" />
            </Array>
          </mxGeometry>
        </mxCell>
        <mxCell id="yz_B4nsLO3pR374VVMbW-41" value="sim" style="edgeStyle=orthogonalEdgeStyle;rounded=0;orthogonalLoop=1;jettySize=auto;html=1;" edge="1" parent="1" source="yz_B4nsLO3pR374VVMbW-36" target="yz_B4nsLO3pR374VVMbW-40">
          <mxGeometry relative="1" as="geometry" />
        </mxCell>
        <mxCell id="yz_B4nsLO3pR374VVMbW-56" value="não" style="edgeStyle=orthogonalEdgeStyle;rounded=0;orthogonalLoop=1;jettySize=auto;html=1;" edge="1" parent="1" source="yz_B4nsLO3pR374VVMbW-36" target="yz_B4nsLO3pR374VVMbW-54">
          <mxGeometry relative="1" as="geometry" />
        </mxCell>
        <mxCell id="yz_B4nsLO3pR374VVMbW-36" value="atualizar dados?" style="strokeWidth=2;html=1;shape=mxgraph.flowchart.decision;whiteSpace=wrap;" vertex="1" parent="1">
          <mxGeometry x="318" y="530" width="100" height="100" as="geometry" />
        </mxCell>
        <mxCell id="yz_B4nsLO3pR374VVMbW-40" value="tela de atualização" style="whiteSpace=wrap;html=1;strokeWidth=2;" vertex="1" parent="1">
          <mxGeometry x="308" y="680" width="120" height="60" as="geometry" />
        </mxCell>
        <mxCell id="yz_B4nsLO3pR374VVMbW-47" value="" style="edgeStyle=orthogonalEdgeStyle;rounded=0;orthogonalLoop=1;jettySize=auto;html=1;" edge="1" parent="1" source="yz_B4nsLO3pR374VVMbW-42" target="yz_B4nsLO3pR374VVMbW-46">
          <mxGeometry relative="1" as="geometry" />
        </mxCell>
        <mxCell id="yz_B4nsLO3pR374VVMbW-42" value="tela de cadastro" style="whiteSpace=wrap;html=1;" vertex="1" parent="1">
          <mxGeometry x="482" y="830" width="120" height="60" as="geometry" />
        </mxCell>
        <mxCell id="yz_B4nsLO3pR374VVMbW-52" value="sim" style="edgeStyle=orthogonalEdgeStyle;rounded=0;orthogonalLoop=1;jettySize=auto;html=1;" edge="1" parent="1" source="yz_B4nsLO3pR374VVMbW-46" target="yz_B4nsLO3pR374VVMbW-51">
          <mxGeometry relative="1" as="geometry" />
        </mxCell>
        <mxCell id="yz_B4nsLO3pR374VVMbW-57" value="não" style="edgeStyle=orthogonalEdgeStyle;rounded=0;orthogonalLoop=1;jettySize=auto;html=1;" edge="1" parent="1" source="yz_B4nsLO3pR374VVMbW-46">
          <mxGeometry relative="1" as="geometry">
            <mxPoint x="218" y="870" as="targetPoint" />
            <Array as="points">
              <mxPoint x="542" y="1050" />
              <mxPoint x="219" y="1050" />
            </Array>
          </mxGeometry>
        </mxCell>
        <mxCell id="yz_B4nsLO3pR374VVMbW-46" value="atualizar dados?" style="strokeWidth=2;html=1;shape=mxgraph.flowchart.decision;whiteSpace=wrap;" vertex="1" parent="1">
          <mxGeometry x="492" y="940" width="100" height="100" as="geometry" />
        </mxCell>
        <mxCell id="yz_B4nsLO3pR374VVMbW-55" style="edgeStyle=orthogonalEdgeStyle;rounded=0;orthogonalLoop=1;jettySize=auto;html=1;" edge="1" parent="1" source="yz_B4nsLO3pR374VVMbW-51" target="yz_B4nsLO3pR374VVMbW-54">
          <mxGeometry relative="1" as="geometry">
            <Array as="points">
              <mxPoint x="408" y="830" />
            </Array>
          </mxGeometry>
        </mxCell>
        <mxCell id="yz_B4nsLO3pR374VVMbW-51" value="tela de atualização" style="whiteSpace=wrap;html=1;strokeWidth=2;" vertex="1" parent="1">
          <mxGeometry x="328" y="960" width="120" height="60" as="geometry" />
        </mxCell>
        <mxCell id="yz_B4nsLO3pR374VVMbW-60" value="" style="edgeStyle=orthogonalEdgeStyle;rounded=0;orthogonalLoop=1;jettySize=auto;html=1;" edge="1" parent="1" source="yz_B4nsLO3pR374VVMbW-54" target="yz_B4nsLO3pR374VVMbW-59">
          <mxGeometry relative="1" as="geometry" />
        </mxCell>
        <mxCell id="yz_B4nsLO3pR374VVMbW-54" value="cadastro finalizado" style="rounded=0;whiteSpace=wrap;html=1;" vertex="1" parent="1">
          <mxGeometry x="178" y="810" width="120" height="60" as="geometry" />
        </mxCell>
        <mxCell id="yz_B4nsLO3pR374VVMbW-59" value="Fim" style="ellipse;whiteSpace=wrap;html=1;" vertex="1" parent="1">
          <mxGeometry x="30" y="805" width="100" height="70" as="geometry" />
        </mxCell>
      </root>
    </mxGraphModel>
  </diagram>
</mxfile>
